<svg xmlns="http://www.w3.org/2000/svg" width="128" height="128" viewBox="0 0 100 100" role="img" aria-label="Gold coin">
  <defs>
    <linearGradient id="rim" x1="0" y1="0" x2="0" y2="1">
      <stop offset="0%" stop-color="#FFEFA8"></stop>
      <stop offset="46%" stop-color="#C8881A"></stop>
      <stop offset="100%" stop-color="#5A3406"></stop>
    </linearGradient>
    <radialGradient id="face" cx="39%" cy="32%" r="80%">
      <stop offset="0%" stop-color="#FFE07A"></stop>
      <stop offset="55%" stop-color="#C8881A"></stop>
      <stop offset="100%" stop-color="#6A3F06"></stop>
    </radialGradient>
    <linearGradient id="emboss" x1="0" y1="0" x2="0" y2="1">
      <stop offset="0%" stop-color="#7E4D08"></stop>
      <stop offset="100%" stop-color="#FFD662"></stop>
    </linearGradient>
  </defs>

  
  <circle cx="50" cy="50" r="44" fill="#4A2B04"></circle>
  <circle cx="50" cy="51.5" r="44" fill="url(#rim)"></circle>

  
  <g stroke="#5A3406" stroke-width="2.2" opacity=".7">
    <line x1="50" y1="6" x2="50" y2="13"></line><line x1="50" y1="87" x2="50" y2="94"></line>
    <line x1="6" y1="50" x2="13" y2="50"></line><line x1="87" y1="50" x2="94" y2="50"></line>
    <line x1="19" y1="19" x2="24" y2="24"></line><line x1="76" y1="76" x2="81" y2="81"></line>
    <line x1="81" y1="19" x2="76" y2="24"></line><line x1="24" y1="76" x2="19" y2="81"></line>
  </g>

  
  <circle cx="50" cy="50" r="37" fill="url(#face)"></circle>
  <circle cx="50" cy="50" r="37" fill="none" stroke="#3F2503" stroke-width="1.6" opacity=".55"></circle>
  <circle cx="50" cy="50" r="35" fill="none" stroke="#FFE890" stroke-width="1.2" opacity=".55"></circle>

  
  <path d="M50 30 L55.9 43.5 L70.5 45 L59.5 54.8 L62.7 69 L50 61.5 L37.3 69 L40.5 54.8 L29.5 45 L44.1 43.5 Z" fill="url(#emboss)" stroke="#4A2B04" stroke-width="1.4" stroke-linejoin="round"></path>

  
  <ellipse cx="42" cy="33" rx="15" ry="7.5" fill="#FFFFFF" opacity=".28"></ellipse>
  <circle cx="61.5" cy="36" r="2" fill="#FFFCEC" opacity=".75"></circle>
</svg>